<mxfile host="app.diagrams.net" modified="2022-04-28T07:13:41.468Z" agent="5.0 (X11; Linux x86_64) AppleWebKit/537.36 (KHTML, like Gecko) Chrome/100.0.4896.127 Safari/537.36" etag="pdJcvT5rZWkiS7xGUDTA" version="17.4.6" type="github">
  <diagram id="OUkIE-inZXtT65BPCZG4" name="Page-1">
    <mxGraphModel dx="900" dy="2148" grid="1" gridSize="10" guides="1" tooltips="1" connect="1" arrows="1" fold="1" page="1" pageScale="1" pageWidth="827" pageHeight="1169" math="0" shadow="0">
      <root>
        <mxCell id="0" />
        <mxCell id="1" parent="0" />
        <mxCell id="8L44soVpKVffB_P4mwUx-3" value="" style="edgeStyle=orthogonalEdgeStyle;rounded=0;orthogonalLoop=1;jettySize=auto;html=1;" edge="1" parent="1" source="8L44soVpKVffB_P4mwUx-1" target="8L44soVpKVffB_P4mwUx-2">
          <mxGeometry relative="1" as="geometry" />
        </mxCell>
        <mxCell id="KERTFfpZq4ni5Aw8scQX-435" value="" style="edgeStyle=orthogonalEdgeStyle;rounded=0;orthogonalLoop=1;jettySize=auto;html=1;startArrow=classic;startFill=1;endArrow=none;endFill=0;" edge="1" parent="1" source="8L44soVpKVffB_P4mwUx-1" target="KERTFfpZq4ni5Aw8scQX-434">
          <mxGeometry relative="1" as="geometry" />
        </mxCell>
        <mxCell id="8L44soVpKVffB_P4mwUx-1" value="while(1)" style="rounded=0;whiteSpace=wrap;html=1;" vertex="1" parent="1">
          <mxGeometry x="354" y="160" width="120" height="60" as="geometry" />
        </mxCell>
        <mxCell id="-eQDhuzCYJPMi_xKxMyq-1" value="false" style="edgeStyle=elbowEdgeStyle;shape=connector;rounded=0;orthogonalLoop=1;jettySize=auto;html=1;exitX=0;exitY=0.5;exitDx=0;exitDy=0;labelBackgroundColor=default;fontFamily=Helvetica;fontSize=11;fontColor=default;endArrow=none;strokeColor=default;endFill=0;" edge="1" parent="1" source="8L44soVpKVffB_P4mwUx-2">
          <mxGeometry relative="1" as="geometry">
            <mxPoint x="414" y="120" as="targetPoint" />
            <Array as="points">
              <mxPoint x="300" y="150" />
            </Array>
          </mxGeometry>
        </mxCell>
        <mxCell id="-eQDhuzCYJPMi_xKxMyq-3" value="true" style="edgeStyle=elbowEdgeStyle;shape=connector;rounded=0;orthogonalLoop=1;jettySize=auto;html=1;labelBackgroundColor=default;fontFamily=Helvetica;fontSize=11;fontColor=default;endArrow=classic;endFill=1;strokeColor=default;" edge="1" parent="1" source="8L44soVpKVffB_P4mwUx-2">
          <mxGeometry relative="1" as="geometry">
            <mxPoint x="414" y="460" as="targetPoint" />
          </mxGeometry>
        </mxCell>
        <mxCell id="8L44soVpKVffB_P4mwUx-2" value="s-&amp;gt;cbs.transmit[chan]" style="rhombus;whiteSpace=wrap;html=1;rounded=0;" vertex="1" parent="1">
          <mxGeometry x="354" y="290" width="120" height="80" as="geometry" />
        </mxCell>
        <mxCell id="KERTFfpZq4ni5Aw8scQX-434" value="start" style="ellipse;whiteSpace=wrap;html=1;rounded=0;" vertex="1" parent="1">
          <mxGeometry x="354" y="20" width="120" height="60" as="geometry" />
        </mxCell>
        <mxCell id="-eQDhuzCYJPMi_xKxMyq-4" value="&lt;div&gt;&lt;span&gt;typedef struct CBS {&lt;/span&gt;&lt;br&gt;&lt;/div&gt;&lt;div&gt;&amp;nbsp; &amp;nbsp; &amp;nbsp; &amp;nbsp; int credit[8];&lt;/div&gt;&lt;div&gt;&amp;nbsp; &amp;nbsp; &amp;nbsp; &amp;nbsp; int idleSlope[8];&lt;/div&gt;&lt;div&gt;&amp;nbsp; &amp;nbsp; &amp;nbsp; &amp;nbsp; int sendSlope[8];&amp;nbsp;&lt;/div&gt;&lt;div&gt;&amp;nbsp; &amp;nbsp; &amp;nbsp; &amp;nbsp; int loCredit[8];&amp;nbsp;&lt;/div&gt;&lt;div&gt;&amp;nbsp; &amp;nbsp; &amp;nbsp; &amp;nbsp; int hiCredit[8];&lt;/div&gt;&lt;div&gt;&amp;nbsp; &amp;nbsp; &amp;nbsp; &amp;nbsp; bool transmit[8];&amp;nbsp;&lt;/div&gt;&lt;div&gt;&amp;nbsp; &amp;nbsp; &amp;nbsp; &amp;nbsp; bool transmitAllowed[8];&lt;/div&gt;&lt;div&gt;&amp;nbsp; &amp;nbsp; &amp;nbsp; &amp;nbsp; bool isOn[8];&lt;/div&gt;&lt;div&gt;&amp;nbsp; &amp;nbsp; &amp;nbsp; &amp;nbsp; int transmitSign;&lt;/div&gt;&lt;div&gt;&amp;nbsp; &amp;nbsp; &amp;nbsp; &amp;nbsp; int portTransmitRate;&lt;/div&gt;&lt;div&gt;&amp;nbsp; &amp;nbsp; &amp;nbsp; &amp;nbsp; int deltaBandwidth[8];&lt;/div&gt;&lt;div&gt;&amp;nbsp; &amp;nbsp; &amp;nbsp; &amp;nbsp; int adminIdleSlope[8];&lt;/div&gt;&lt;div&gt;&amp;nbsp; &amp;nbsp; &amp;nbsp; &amp;nbsp; int operIdleSlope[8];&lt;/div&gt;&lt;div&gt;} CBS;&lt;/div&gt;&lt;div&gt;&lt;br&gt;&lt;/div&gt;" style="shape=document;whiteSpace=wrap;html=1;boundedLbl=1;fontFamily=Helvetica;fontSize=11;fontColor=default;align=left;" vertex="1" parent="1">
          <mxGeometry y="10" width="150" height="300" as="geometry" />
        </mxCell>
        <mxCell id="-eQDhuzCYJPMi_xKxMyq-7" value="false" style="edgeStyle=elbowEdgeStyle;shape=connector;rounded=0;orthogonalLoop=1;jettySize=auto;html=1;exitX=1;exitY=0.5;exitDx=0;exitDy=0;labelBackgroundColor=default;fontFamily=Helvetica;fontSize=11;fontColor=default;endArrow=none;endFill=0;strokeColor=default;" edge="1" parent="1" source="-eQDhuzCYJPMi_xKxMyq-5">
          <mxGeometry relative="1" as="geometry">
            <mxPoint x="414" y="250" as="targetPoint" />
            <Array as="points">
              <mxPoint x="530" y="390" />
            </Array>
          </mxGeometry>
        </mxCell>
        <mxCell id="9pXUkVByg81jXkQ24x-p-2" value="true" style="edgeStyle=elbowEdgeStyle;shape=connector;rounded=0;orthogonalLoop=1;jettySize=auto;html=1;labelBackgroundColor=default;fontFamily=Helvetica;fontSize=11;fontColor=default;startArrow=none;startFill=0;endArrow=none;endFill=0;strokeColor=default;" edge="1" parent="1" source="-eQDhuzCYJPMi_xKxMyq-5" target="9pXUkVByg81jXkQ24x-p-1">
          <mxGeometry relative="1" as="geometry" />
        </mxCell>
        <mxCell id="-eQDhuzCYJPMi_xKxMyq-5" value="当前队列为最高优先级&amp;amp;&amp;amp;credit &amp;gt;= 0" style="rhombus;whiteSpace=wrap;html=1;rounded=0;" vertex="1" parent="1">
          <mxGeometry x="354" y="460" width="120" height="80" as="geometry" />
        </mxCell>
        <mxCell id="-eQDhuzCYJPMi_xKxMyq-11" style="edgeStyle=elbowEdgeStyle;shape=connector;rounded=0;orthogonalLoop=1;jettySize=auto;html=1;labelBackgroundColor=default;fontFamily=Helvetica;fontSize=11;fontColor=default;startArrow=none;startFill=0;endArrow=none;endFill=0;strokeColor=default;" edge="1" parent="1" source="-eQDhuzCYJPMi_xKxMyq-9">
          <mxGeometry relative="1" as="geometry">
            <mxPoint x="530" y="250" as="targetPoint" />
            <Array as="points">
              <mxPoint x="610" y="240" />
              <mxPoint x="610" y="570" />
              <mxPoint x="530" y="570" />
            </Array>
          </mxGeometry>
        </mxCell>
        <mxCell id="-eQDhuzCYJPMi_xKxMyq-9" value="transmitting" style="whiteSpace=wrap;html=1;rounded=0;" vertex="1" parent="1">
          <mxGeometry x="354" y="790" width="120" height="60" as="geometry" />
        </mxCell>
        <mxCell id="9pXUkVByg81jXkQ24x-p-6" style="edgeStyle=elbowEdgeStyle;shape=connector;rounded=0;orthogonalLoop=1;jettySize=auto;html=1;entryX=0.5;entryY=0;entryDx=0;entryDy=0;labelBackgroundColor=default;fontFamily=Helvetica;fontSize=11;fontColor=default;startArrow=none;startFill=0;endArrow=none;endFill=0;strokeColor=default;" edge="1" parent="1" source="9pXUkVByg81jXkQ24x-p-1" target="-eQDhuzCYJPMi_xKxMyq-9">
          <mxGeometry relative="1" as="geometry" />
        </mxCell>
        <mxCell id="9pXUkVByg81jXkQ24x-p-1" value="&lt;span style=&quot;font-size: 11px&quot;&gt;s-&amp;gt;cbs.transmitAllowed&lt;/span&gt;&lt;br style=&quot;font-size: 11px&quot;&gt;&lt;span style=&quot;font-size: 11px&quot;&gt;[ch]=true&lt;/span&gt;" style="whiteSpace=wrap;html=1;rounded=0;" vertex="1" parent="1">
          <mxGeometry x="354" y="630" width="120" height="60" as="geometry" />
        </mxCell>
        <mxCell id="9pXUkVByg81jXkQ24x-p-10" style="edgeStyle=elbowEdgeStyle;shape=connector;rounded=0;orthogonalLoop=1;jettySize=auto;html=1;exitX=0.5;exitY=1;exitDx=0;exitDy=0;entryX=0.5;entryY=0;entryDx=0;entryDy=0;labelBackgroundColor=default;fontFamily=Helvetica;fontSize=11;fontColor=default;startArrow=none;startFill=0;endArrow=classic;endFill=1;strokeColor=default;" edge="1" parent="1" source="9pXUkVByg81jXkQ24x-p-9">
          <mxGeometry relative="1" as="geometry">
            <mxPoint x="945" y="420" as="targetPoint" />
          </mxGeometry>
        </mxCell>
        <mxCell id="9pXUkVByg81jXkQ24x-p-11" value="true" style="edgeLabel;html=1;align=center;verticalAlign=middle;resizable=0;points=[];fontSize=11;fontFamily=Helvetica;fontColor=default;" vertex="1" connectable="0" parent="9pXUkVByg81jXkQ24x-p-10">
          <mxGeometry x="-0.24" y="1" relative="1" as="geometry">
            <mxPoint as="offset" />
          </mxGeometry>
        </mxCell>
        <mxCell id="9pXUkVByg81jXkQ24x-p-30" value="fasle" style="edgeStyle=elbowEdgeStyle;shape=connector;rounded=0;orthogonalLoop=1;jettySize=auto;html=1;exitX=1;exitY=0.5;exitDx=0;exitDy=0;entryX=0.5;entryY=0;entryDx=0;entryDy=0;labelBackgroundColor=default;fontFamily=Helvetica;fontSize=11;fontColor=default;startArrow=none;startFill=0;endArrow=classic;endFill=1;strokeColor=default;" edge="1" parent="1" source="9pXUkVByg81jXkQ24x-p-9" target="9pXUkVByg81jXkQ24x-p-29">
          <mxGeometry relative="1" as="geometry">
            <Array as="points">
              <mxPoint x="1150" y="340" />
            </Array>
          </mxGeometry>
        </mxCell>
        <mxCell id="9pXUkVByg81jXkQ24x-p-9" value="s-&amp;gt;transmit[ch]" style="rhombus;whiteSpace=wrap;html=1;rounded=0;" vertex="1" parent="1">
          <mxGeometry x="885" y="240" width="120" height="80" as="geometry" />
        </mxCell>
        <mxCell id="9pXUkVByg81jXkQ24x-p-21" value="true" style="edgeStyle=elbowEdgeStyle;shape=connector;rounded=0;orthogonalLoop=1;jettySize=auto;html=1;labelBackgroundColor=default;fontFamily=Helvetica;fontSize=11;fontColor=default;startArrow=none;startFill=0;endArrow=classic;endFill=1;strokeColor=default;" edge="1" parent="1" source="9pXUkVByg81jXkQ24x-p-19" target="9pXUkVByg81jXkQ24x-p-20">
          <mxGeometry relative="1" as="geometry" />
        </mxCell>
        <mxCell id="9pXUkVByg81jXkQ24x-p-25" value="false" style="edgeStyle=elbowEdgeStyle;shape=connector;rounded=0;orthogonalLoop=1;jettySize=auto;html=1;labelBackgroundColor=default;fontFamily=Helvetica;fontSize=11;fontColor=default;startArrow=none;startFill=0;endArrow=classic;endFill=1;strokeColor=default;" edge="1" parent="1" source="9pXUkVByg81jXkQ24x-p-19" target="9pXUkVByg81jXkQ24x-p-24">
          <mxGeometry relative="1" as="geometry">
            <Array as="points">
              <mxPoint x="740" y="540" />
            </Array>
          </mxGeometry>
        </mxCell>
        <mxCell id="9pXUkVByg81jXkQ24x-p-19" value="transmitAllowed[ch]" style="rhombus;whiteSpace=wrap;html=1;rounded=0;" vertex="1" parent="1">
          <mxGeometry x="885" y="420" width="120" height="80" as="geometry" />
        </mxCell>
        <mxCell id="9pXUkVByg81jXkQ24x-p-59" value="" style="edgeStyle=elbowEdgeStyle;shape=connector;rounded=0;orthogonalLoop=1;jettySize=auto;html=1;labelBackgroundColor=default;fontFamily=Helvetica;fontSize=11;fontColor=default;startArrow=none;startFill=0;endArrow=classic;endFill=1;strokeColor=default;" edge="1" parent="1" source="9pXUkVByg81jXkQ24x-p-20" target="9pXUkVByg81jXkQ24x-p-58">
          <mxGeometry relative="1" as="geometry" />
        </mxCell>
        <mxCell id="9pXUkVByg81jXkQ24x-p-20" value="credit[ch] decrease" style="whiteSpace=wrap;html=1;rounded=0;" vertex="1" parent="1">
          <mxGeometry x="885" y="590" width="120" height="60" as="geometry" />
        </mxCell>
        <mxCell id="fOnYlHfaTq4MS1wXpkmK-27" style="edgeStyle=elbowEdgeStyle;shape=connector;rounded=0;orthogonalLoop=1;jettySize=auto;html=1;labelBackgroundColor=default;fontFamily=Helvetica;fontSize=11;fontColor=default;startArrow=none;startFill=0;endArrow=none;endFill=0;strokeColor=default;" edge="1" parent="1" source="9pXUkVByg81jXkQ24x-p-24">
          <mxGeometry relative="1" as="geometry">
            <mxPoint x="950" y="969.9999999999995" as="targetPoint" />
            <Array as="points">
              <mxPoint x="740" y="780" />
            </Array>
          </mxGeometry>
        </mxCell>
        <mxCell id="9pXUkVByg81jXkQ24x-p-24" value="credit[ch] increase" style="whiteSpace=wrap;html=1;rounded=0;" vertex="1" parent="1">
          <mxGeometry x="685" y="590" width="120" height="60" as="geometry" />
        </mxCell>
        <mxCell id="9pXUkVByg81jXkQ24x-p-32" value="true" style="edgeStyle=elbowEdgeStyle;shape=connector;rounded=0;orthogonalLoop=1;jettySize=auto;html=1;labelBackgroundColor=default;fontFamily=Helvetica;fontSize=11;fontColor=default;startArrow=none;startFill=0;endArrow=classic;endFill=1;strokeColor=default;" edge="1" parent="1" source="9pXUkVByg81jXkQ24x-p-29" target="9pXUkVByg81jXkQ24x-p-31">
          <mxGeometry relative="1" as="geometry" />
        </mxCell>
        <mxCell id="fOnYlHfaTq4MS1wXpkmK-21" value="false" style="edgeStyle=elbowEdgeStyle;shape=connector;rounded=0;orthogonalLoop=1;jettySize=auto;html=1;entryX=0;entryY=0.5;entryDx=0;entryDy=0;labelBackgroundColor=default;fontFamily=Helvetica;fontSize=11;fontColor=default;startArrow=none;startFill=0;endArrow=classic;endFill=1;strokeColor=default;" edge="1" parent="1" source="9pXUkVByg81jXkQ24x-p-29" target="9pXUkVByg81jXkQ24x-p-33">
          <mxGeometry relative="1" as="geometry" />
        </mxCell>
        <mxCell id="9pXUkVByg81jXkQ24x-p-29" value="credit[ch] &amp;gt; 0" style="rhombus;whiteSpace=wrap;html=1;rounded=0;" vertex="1" parent="1">
          <mxGeometry x="1090" y="420" width="120" height="80" as="geometry" />
        </mxCell>
        <mxCell id="fOnYlHfaTq4MS1wXpkmK-25" style="edgeStyle=elbowEdgeStyle;shape=connector;rounded=0;orthogonalLoop=1;jettySize=auto;html=1;labelBackgroundColor=default;fontFamily=Helvetica;fontSize=11;fontColor=default;startArrow=none;startFill=0;endArrow=none;endFill=0;strokeColor=default;" edge="1" parent="1" source="9pXUkVByg81jXkQ24x-p-31">
          <mxGeometry relative="1" as="geometry">
            <mxPoint x="1160" y="970" as="targetPoint" />
          </mxGeometry>
        </mxCell>
        <mxCell id="9pXUkVByg81jXkQ24x-p-31" value="credit[ch] = 0" style="whiteSpace=wrap;html=1;rounded=0;" vertex="1" parent="1">
          <mxGeometry x="1090" y="590" width="120" height="60" as="geometry" />
        </mxCell>
        <mxCell id="9pXUkVByg81jXkQ24x-p-37" value="" style="edgeStyle=elbowEdgeStyle;shape=connector;rounded=0;orthogonalLoop=1;jettySize=auto;html=1;labelBackgroundColor=default;fontFamily=Helvetica;fontSize=11;fontColor=default;startArrow=none;startFill=0;endArrow=classic;endFill=1;strokeColor=default;" edge="1" parent="1" source="9pXUkVByg81jXkQ24x-p-33" target="9pXUkVByg81jXkQ24x-p-36">
          <mxGeometry relative="1" as="geometry" />
        </mxCell>
        <mxCell id="9pXUkVByg81jXkQ24x-p-33" value="credit[ch] &amp;lt; 0" style="rhombus;whiteSpace=wrap;html=1;rounded=0;" vertex="1" parent="1">
          <mxGeometry x="1270" y="419" width="120" height="80" as="geometry" />
        </mxCell>
        <mxCell id="9pXUkVByg81jXkQ24x-p-41" value="" style="edgeStyle=elbowEdgeStyle;shape=connector;rounded=0;orthogonalLoop=1;jettySize=auto;html=1;labelBackgroundColor=default;fontFamily=Helvetica;fontSize=11;fontColor=default;startArrow=none;startFill=0;endArrow=classic;endFill=1;strokeColor=default;" edge="1" parent="1" source="9pXUkVByg81jXkQ24x-p-36" target="9pXUkVByg81jXkQ24x-p-40">
          <mxGeometry relative="1" as="geometry" />
        </mxCell>
        <mxCell id="9pXUkVByg81jXkQ24x-p-36" value="credit[ch] decrease" style="whiteSpace=wrap;html=1;rounded=0;" vertex="1" parent="1">
          <mxGeometry x="1270" y="589" width="120" height="60" as="geometry" />
        </mxCell>
        <mxCell id="9pXUkVByg81jXkQ24x-p-43" value="true" style="edgeStyle=elbowEdgeStyle;shape=connector;rounded=0;orthogonalLoop=1;jettySize=auto;html=1;labelBackgroundColor=default;fontFamily=Helvetica;fontSize=11;fontColor=default;startArrow=none;startFill=0;endArrow=classic;endFill=1;strokeColor=default;" edge="1" parent="1" source="9pXUkVByg81jXkQ24x-p-40" target="9pXUkVByg81jXkQ24x-p-42">
          <mxGeometry relative="1" as="geometry" />
        </mxCell>
        <mxCell id="9pXUkVByg81jXkQ24x-p-40" value="credit[ch] &amp;gt; 0" style="rhombus;whiteSpace=wrap;html=1;rounded=0;" vertex="1" parent="1">
          <mxGeometry x="1270" y="719" width="120" height="80" as="geometry" />
        </mxCell>
        <mxCell id="fOnYlHfaTq4MS1wXpkmK-26" style="edgeStyle=elbowEdgeStyle;shape=connector;rounded=0;orthogonalLoop=1;jettySize=auto;html=1;labelBackgroundColor=default;fontFamily=Helvetica;fontSize=11;fontColor=default;startArrow=none;startFill=0;endArrow=none;endFill=0;strokeColor=default;" edge="1" parent="1" source="9pXUkVByg81jXkQ24x-p-42">
          <mxGeometry relative="1" as="geometry">
            <mxPoint x="930" y="970" as="targetPoint" />
            <Array as="points">
              <mxPoint x="1330" y="950" />
            </Array>
          </mxGeometry>
        </mxCell>
        <mxCell id="9pXUkVByg81jXkQ24x-p-42" value="cbs.credit[ch] = 0" style="whiteSpace=wrap;html=1;rounded=0;" vertex="1" parent="1">
          <mxGeometry x="1270" y="889" width="120" height="60" as="geometry" />
        </mxCell>
        <mxCell id="9pXUkVByg81jXkQ24x-p-45" style="edgeStyle=elbowEdgeStyle;shape=connector;rounded=0;orthogonalLoop=1;jettySize=auto;html=1;exitX=0.5;exitY=1;exitDx=0;exitDy=0;labelBackgroundColor=default;fontFamily=Helvetica;fontSize=11;fontColor=default;startArrow=none;startFill=0;endArrow=classic;endFill=1;strokeColor=default;" edge="1" parent="1" target="9pXUkVByg81jXkQ24x-p-9">
          <mxGeometry relative="1" as="geometry">
            <mxPoint x="945" y="150" as="sourcePoint" />
          </mxGeometry>
        </mxCell>
        <mxCell id="9pXUkVByg81jXkQ24x-p-53" value="true" style="edgeLabel;html=1;align=center;verticalAlign=middle;resizable=0;points=[];fontSize=11;fontFamily=Helvetica;fontColor=default;" vertex="1" connectable="0" parent="9pXUkVByg81jXkQ24x-p-45">
          <mxGeometry x="-0.3333" relative="1" as="geometry">
            <mxPoint as="offset" />
          </mxGeometry>
        </mxCell>
        <mxCell id="9pXUkVByg81jXkQ24x-p-48" style="edgeStyle=elbowEdgeStyle;shape=connector;rounded=0;orthogonalLoop=1;jettySize=auto;html=1;exitX=0.5;exitY=1;exitDx=0;exitDy=0;entryX=0.5;entryY=0;entryDx=0;entryDy=0;labelBackgroundColor=default;fontFamily=Helvetica;fontSize=11;fontColor=default;startArrow=none;startFill=0;endArrow=classic;endFill=1;strokeColor=default;" edge="1" parent="1" source="9pXUkVByg81jXkQ24x-p-46" target="9pXUkVByg81jXkQ24x-p-47">
          <mxGeometry relative="1" as="geometry" />
        </mxCell>
        <mxCell id="9pXUkVByg81jXkQ24x-p-46" value="start" style="rounded=1;whiteSpace=wrap;html=1;fontFamily=Helvetica;fontSize=11;fontColor=default;" vertex="1" parent="1">
          <mxGeometry x="885" y="-170" width="120" height="60" as="geometry" />
        </mxCell>
        <mxCell id="9pXUkVByg81jXkQ24x-p-50" style="edgeStyle=elbowEdgeStyle;shape=connector;rounded=0;orthogonalLoop=1;jettySize=auto;html=1;exitX=0.5;exitY=1;exitDx=0;exitDy=0;entryX=0.5;entryY=0;entryDx=0;entryDy=0;labelBackgroundColor=default;fontFamily=Helvetica;fontSize=11;fontColor=default;startArrow=none;startFill=0;endArrow=classic;endFill=1;strokeColor=default;" edge="1" parent="1" source="9pXUkVByg81jXkQ24x-p-47" target="9pXUkVByg81jXkQ24x-p-49">
          <mxGeometry relative="1" as="geometry" />
        </mxCell>
        <mxCell id="9pXUkVByg81jXkQ24x-p-47" value="while(1)" style="rounded=0;whiteSpace=wrap;html=1;fontFamily=Helvetica;fontSize=11;fontColor=default;" vertex="1" parent="1">
          <mxGeometry x="885" y="-60" width="120" height="60" as="geometry" />
        </mxCell>
        <mxCell id="9pXUkVByg81jXkQ24x-p-51" style="edgeStyle=elbowEdgeStyle;shape=connector;rounded=0;orthogonalLoop=1;jettySize=auto;html=1;labelBackgroundColor=default;fontFamily=Helvetica;fontSize=11;fontColor=default;startArrow=none;startFill=0;endArrow=classic;endFill=1;strokeColor=default;" edge="1" parent="1" source="9pXUkVByg81jXkQ24x-p-49">
          <mxGeometry relative="1" as="geometry">
            <mxPoint x="945" y="-90" as="targetPoint" />
            <Array as="points">
              <mxPoint x="1100" y="-50" />
              <mxPoint x="1080" y="-70" />
            </Array>
          </mxGeometry>
        </mxCell>
        <mxCell id="9pXUkVByg81jXkQ24x-p-52" value="false" style="edgeLabel;html=1;align=center;verticalAlign=middle;resizable=0;points=[];fontSize=11;fontFamily=Helvetica;fontColor=default;" vertex="1" connectable="0" parent="9pXUkVByg81jXkQ24x-p-51">
          <mxGeometry x="-0.0533" y="2" relative="1" as="geometry">
            <mxPoint as="offset" />
          </mxGeometry>
        </mxCell>
        <mxCell id="9pXUkVByg81jXkQ24x-p-49" value="s-&amp;gt;cbs.isOn" style="rhombus;whiteSpace=wrap;html=1;rounded=0;" vertex="1" parent="1">
          <mxGeometry x="885" y="70" width="120" height="80" as="geometry" />
        </mxCell>
        <mxCell id="9pXUkVByg81jXkQ24x-p-61" value="true" style="edgeStyle=elbowEdgeStyle;shape=connector;rounded=0;orthogonalLoop=1;jettySize=auto;html=1;labelBackgroundColor=default;fontFamily=Helvetica;fontSize=11;fontColor=default;startArrow=none;startFill=0;endArrow=classic;endFill=1;strokeColor=default;" edge="1" parent="1" source="9pXUkVByg81jXkQ24x-p-58" target="9pXUkVByg81jXkQ24x-p-60">
          <mxGeometry relative="1" as="geometry" />
        </mxCell>
        <mxCell id="fOnYlHfaTq4MS1wXpkmK-29" value="false" style="edgeStyle=elbowEdgeStyle;shape=connector;rounded=0;orthogonalLoop=1;jettySize=auto;html=1;exitX=1;exitY=0.5;exitDx=0;exitDy=0;entryX=0;entryY=0.5;entryDx=0;entryDy=0;labelBackgroundColor=default;fontFamily=Helvetica;fontSize=11;fontColor=default;startArrow=none;startFill=0;endArrow=classic;endFill=1;strokeColor=default;" edge="1" parent="1" source="9pXUkVByg81jXkQ24x-p-58" target="9pXUkVByg81jXkQ24x-p-62">
          <mxGeometry relative="1" as="geometry" />
        </mxCell>
        <mxCell id="9pXUkVByg81jXkQ24x-p-58" value="credit[ch] &amp;gt; hiCredit[ch]" style="rhombus;whiteSpace=wrap;html=1;rounded=0;" vertex="1" parent="1">
          <mxGeometry x="905" y="990" width="80" height="80" as="geometry" />
        </mxCell>
        <mxCell id="fOnYlHfaTq4MS1wXpkmK-31" style="edgeStyle=elbowEdgeStyle;shape=connector;rounded=0;orthogonalLoop=1;jettySize=auto;html=1;labelBackgroundColor=default;fontFamily=Helvetica;fontSize=11;fontColor=default;startArrow=none;startFill=0;endArrow=none;endFill=0;strokeColor=default;" edge="1" parent="1" source="9pXUkVByg81jXkQ24x-p-60">
          <mxGeometry relative="1" as="geometry">
            <mxPoint x="1120" y="1359.9999999999995" as="targetPoint" />
            <Array as="points">
              <mxPoint x="945" y="1280" />
            </Array>
          </mxGeometry>
        </mxCell>
        <mxCell id="9pXUkVByg81jXkQ24x-p-60" value="credit = hiCredit" style="whiteSpace=wrap;html=1;rounded=0;" vertex="1" parent="1">
          <mxGeometry x="885" y="1150" width="120" height="60" as="geometry" />
        </mxCell>
        <mxCell id="9pXUkVByg81jXkQ24x-p-66" value="true" style="edgeStyle=elbowEdgeStyle;shape=connector;rounded=0;orthogonalLoop=1;jettySize=auto;html=1;labelBackgroundColor=default;fontFamily=Helvetica;fontSize=11;fontColor=default;startArrow=none;startFill=0;endArrow=classic;endFill=1;strokeColor=default;" edge="1" parent="1" source="9pXUkVByg81jXkQ24x-p-62" target="9pXUkVByg81jXkQ24x-p-65">
          <mxGeometry relative="1" as="geometry" />
        </mxCell>
        <mxCell id="9pXUkVByg81jXkQ24x-p-62" value="credit[ch] &amp;lt; loCredit[ch]" style="rhombus;whiteSpace=wrap;html=1;rounded=0;" vertex="1" parent="1">
          <mxGeometry x="1120" y="990" width="80" height="80" as="geometry" />
        </mxCell>
        <mxCell id="fOnYlHfaTq4MS1wXpkmK-32" style="edgeStyle=elbowEdgeStyle;shape=connector;rounded=0;orthogonalLoop=1;jettySize=auto;html=1;labelBackgroundColor=default;fontFamily=Helvetica;fontSize=11;fontColor=default;startArrow=none;startFill=0;endArrow=none;endFill=0;strokeColor=default;" edge="1" parent="1" source="9pXUkVByg81jXkQ24x-p-65">
          <mxGeometry relative="1" as="geometry">
            <mxPoint x="1160" y="1359.9999999999995" as="targetPoint" />
          </mxGeometry>
        </mxCell>
        <mxCell id="9pXUkVByg81jXkQ24x-p-65" value="credit = loCredit" style="whiteSpace=wrap;html=1;rounded=0;" vertex="1" parent="1">
          <mxGeometry x="1100" y="1150" width="120" height="60" as="geometry" />
        </mxCell>
        <mxCell id="fOnYlHfaTq4MS1wXpkmK-9" value="" style="endArrow=none;html=1;rounded=0;labelBackgroundColor=default;fontFamily=Helvetica;fontSize=11;fontColor=default;strokeColor=default;shape=connector;" edge="1" parent="1">
          <mxGeometry width="50" height="50" relative="1" as="geometry">
            <mxPoint x="1450" y="-90" as="sourcePoint" />
            <mxPoint x="1106" y="1360" as="targetPoint" />
            <Array as="points">
              <mxPoint x="1450" y="1360" />
            </Array>
          </mxGeometry>
        </mxCell>
        <mxCell id="fOnYlHfaTq4MS1wXpkmK-11" value="SLEEP(40ns)" style="edgeLabel;html=1;align=center;verticalAlign=middle;resizable=0;points=[];fontSize=11;fontFamily=Helvetica;fontColor=default;" vertex="1" connectable="0" parent="fOnYlHfaTq4MS1wXpkmK-9">
          <mxGeometry x="0.8039" y="4" relative="1" as="geometry">
            <mxPoint as="offset" />
          </mxGeometry>
        </mxCell>
        <mxCell id="fOnYlHfaTq4MS1wXpkmK-10" value="" style="endArrow=none;html=1;rounded=0;labelBackgroundColor=default;fontFamily=Helvetica;fontSize=11;fontColor=default;strokeColor=default;shape=connector;" edge="1" parent="1">
          <mxGeometry width="50" height="50" relative="1" as="geometry">
            <mxPoint x="1100" y="-90" as="sourcePoint" />
            <mxPoint x="1450" y="-90" as="targetPoint" />
          </mxGeometry>
        </mxCell>
      </root>
    </mxGraphModel>
  </diagram>
</mxfile>
